<?xml version="1.0" encoding="UTF-8" standalone="no"?>
<svg
   viewBox="0 0 737.64435 444.52769"
   height="444.52771"
   width="737.64435"
   xml:space="preserve"
   id="svg2"
   version="1.1"
   sodipodi:docname="logo_favolando.svg"
   inkscape:version="1.4.3 (0d15f75, 2025-12-25)"
   xmlns:inkscape="http://www.inkscape.org/namespaces/inkscape"
   xmlns:sodipodi="http://sodipodi.sourceforge.net/DTD/sodipodi-0.dtd"
   xmlns="http://www.w3.org/2000/svg"
   xmlns:svg="http://www.w3.org/2000/svg"
   xmlns:rdf="http://www.w3.org/1999/02/22-rdf-syntax-ns#"
   xmlns:cc="http://creativecommons.org/ns#"
   xmlns:dc="http://purl.org/dc/elements/1.1/"><sodipodi:namedview
     id="namedview1"
     pagecolor="#ffffff"
     bordercolor="#000000"
     borderopacity="0.25"
     inkscape:showpageshadow="2"
     inkscape:pageopacity="0.0"
     inkscape:pagecheckerboard="0"
     inkscape:deskcolor="#d1d1d1"
     inkscape:zoom="0.72416859"
     inkscape:cx="378.36493"
     inkscape:cy="254.77493"
     inkscape:window-width="1920"
     inkscape:window-height="1094"
     inkscape:window-x="-11"
     inkscape:window-y="-11"
     inkscape:window-maximized="1"
     inkscape:current-layer="svg2" /><metadata
     id="metadata8"><rdf:RDF><cc:Work
         rdf:about=""><dc:format>image/svg+xml</dc:format><dc:type
           rdf:resource="http://purl.org/dc/dcmitype/StillImage" /></cc:Work></rdf:RDF></metadata><defs
     id="defs6" /><g
     transform="matrix(0,1.3333333,1.3333333,0,-225.52728,-163.95933)"
     id="g10"><path
       id="path12"
       style="fill:none;stroke:#231f20;stroke-width:7.877;stroke-linecap:round;stroke-linejoin:miter;stroke-miterlimit:4;stroke-dasharray:none;stroke-opacity:1"
       d="m 182.143,212.562 c -3.974,1.589 -24.637,9.139 -32.585,7.153 0,17.881 -1.589,42.916 -5.562,50.068 -3.975,7.152 28.61,-31.79 79.076,-15.1 108.242,35.797 97.356,-108.879 25.829,-77.09 m 17.484,132.721 c -30.597,-10.728 6.508,-66.274 26.227,-37.352 5.961,8.742 -29.803,41.326 -29.803,41.326 m 9.139,-8.345 c 4.769,-1.987 21.458,-4.371 22.253,0.795 0.795,5.166 -35.817,33.715 -34.572,41.724 5.564,35.763 117.622,-27.021 121.994,30.2 3.519,46.07 -98.548,33.776 -98.548,33.776 0,0 10.728,15.498 8.344,32.982 m -1.191,26.624 c -5.112,-5.485 -12.319,-25.83 11.523,-30.995 23.842,-5.165 41.724,24.637 29.008,36.557 -12.716,11.921 -24.239,11.921 -40.531,-5.562 z m -0.398,-1.194 c 4.768,-1.985 14.305,-3.973 13.908,5.564 -0.397,9.538 -36.16,46.096 -69.937,49.275 -33.776,3.177 -62.784,-18.279 -60.798,-31.392 1.987,-13.113 144.245,-18.677 120.403,43.712 m -50.466,20.662 c -4.769,-40.135 64.772,-30.201 50.863,-8.743 -10.331,18.279 -30.597,17.881 -30.597,17.881 m -26.623,-11.125 c 0,0 40.929,13.906 40.929,23.047 0,9.14 -47.684,-17.485 -54.837,-8.743 -7.153,8.743 33.776,38.943 33.776,38.943 M 229.827,587.28 c -9.934,-0.794 -21.458,-1.985 -20.663,5.564 0.795,7.551 34.174,31.39 34.571,40.532 0.397,9.139 -10.729,11.522 -14.305,11.522 m -45.3,1.193 c -0.398,-15.1 19.47,-28.211 41.723,-5.164 22.253,23.046 -11.125,29.005 -19.072,27.416 m -79.873,-72.319 c 0,0 86.627,72.719 87.024,82.255 0.397,9.537 -10.331,14.307 -17.484,12.717 m -46.095,-7.949 c 4.389,-10.109 22.253,-7.947 38.544,4.371 16.293,12.319 2.782,27.419 -7.152,30.2 -12.011,3.361 -44.505,-4.37 -31.392,-34.571 z m 1.192,-2.385 c 3.974,3.975 12.716,11.526 5.961,15.1 -6.756,3.577 -21.856,3.181 -27.419,-11.921 m 93.382,-447.04 c 0,3.179 3.179,21.856 -5.563,38.943" /><path
       id="path14"
       style="fill:none;stroke:#ffffff;stroke-width:3.939;stroke-linecap:butt;stroke-linejoin:round;stroke-miterlimit:4;stroke-dasharray:2.6257, 2.6257;stroke-dashoffset:0;stroke-opacity:1"
       d="m 182.143,212.562 c -3.974,1.589 -21.993,8.001 -32.585,7.153 0,17.881 -1.589,42.916 -5.562,50.068 -3.975,7.152 28.61,-31.79 79.076,-15.1 108.242,35.797 97.356,-108.879 25.829,-77.09 m 12.963,131.221 c -22.188,-13.213 11.029,-64.774 30.748,-35.852 5.961,8.742 -29.803,41.326 -29.803,41.326 m 15.663,-9.729 c 7.919,-0.871 15.154,-1.566 15.729,2.179 0.795,5.166 -35.817,33.715 -34.572,41.724 5.564,35.763 117.622,-27.021 121.994,30.2 3.519,46.07 -94.25,34.207 -99.712,32.84 -2.807,-1.629 10.315,11.521 9.773,28.781 m -1.456,31.761 c -5.112,-5.485 -12.319,-25.83 11.523,-30.995 23.842,-5.165 41.724,24.637 29.008,36.557 -12.716,11.921 -24.239,11.921 -40.531,-5.562 z m -9.848,32.296 c -13.144,10.555 -29.927,19.782 -46.579,21.349 -33.776,3.177 -62.784,-18.279 -60.798,-31.392 1.942,-12.816 138.097,-19.071 121.934,40.059 m 4.417,-49.192 c -3.085,4.279 -7.556,9.27 -13.352,14.456 m 7.128,-29.915 c 13.955,-3.514 10.87,8.011 10.24,9.336 m -60.736,75.099 c 0.234,-35.392 64.591,-24.918 51.169,-4.212 -6.49,11.483 -16.716,15.391 -23.561,16.861 m -33.659,-10.105 c 0,0 40.929,13.906 40.929,23.047 0,9.14 -47.684,-17.485 -54.837,-8.743 -7.153,8.743 33.776,38.943 33.776,38.943 m -32.69,-22.66 c -9.945,-0.656 -15.259,-0.197 -14.597,5.573 0.865,7.542 34.566,31.383 34.571,40.532 0.005,8.008 -4.914,9.014 -10.335,11.224 m -48.389,-4.216 c 4.116,-12.349 21.11,-19.78 40.842,0.543 16.521,17.016 2.929,25.558 -13.435,27.768 m -85.51,-72.671 c 0,0 86.627,72.719 87.024,82.255 0.372,8.927 -8.541,12.863 -15.77,13.203 m -47.809,-8.435 c 4.389,-10.109 22.253,-7.947 38.544,4.371 16.293,12.319 2.782,27.419 -7.152,30.2 -12.011,3.361 -44.505,-4.37 -31.392,-34.571 z m -7.435,13.601 c -5.199,-0.873 -10.101,-5.396 -12.831,-12.807 m 24.092,-0.586 c 4.097,4.1 8.801,9.611 3.327,12.507 -1.728,0.916 -3.71,1.546 -6.23,1.761 m 71.946,-438.319 c -1.246,5.733 -2.793,11.964 -5.982,18.199 m 6.229,-40.602 c 0,1.711 1.016,6.393 0.501,14.425" /><path
       id="path16"
       style="fill:#231f20;fill-opacity:1;fill-rule:nonzero;stroke:none"
       d="m 313.833,411.25 c -0.807,-0.219 -1.686,-2.494 -3.667,-1.833 -4.033,1.54 -5.5,8.141 -4.987,8.654 0.514,0.441 0.954,0.147 1.394,0.366 0.366,0.221 0.073,1.395 0.954,1.614 0.952,0.22 1.099,-0.513 1.685,-0.586 0.954,-0.074 0.881,0.953 1.614,0.88 1.027,-0.074 0.441,-1.027 1.321,-1.32 0.659,-0.294 0.807,0.66 1.613,0.293 0.439,-0.147 0.513,-1.174 0.806,-2.054 0.809,-2.787 -0.806,-3.593 -0.367,-4.547" /><path
       id="path18"
       style="fill:#231f20;fill-opacity:1;fill-rule:nonzero;stroke:none"
       d="m 319.41,359.793 c 0.814,-0.191 2.668,1.391 4.098,-0.132 2.815,-3.272 0.966,-9.777 0.27,-9.984 -0.661,-0.144 -0.91,0.324 -1.4,0.339 -0.427,-0.019 -0.727,-1.19 -1.607,-0.965 -0.941,0.26 -0.722,0.975 -1.204,1.318 -0.804,0.518 -1.228,-0.42 -1.839,-0.006 -0.867,0.553 0.102,1.112 -0.532,1.789 -0.442,0.571 -1.024,-0.197 -1.56,0.509 -0.317,0.338 0.109,1.276 0.269,2.189 0.613,2.837 2.417,2.779 2.484,3.827" /><path
       id="path20"
       style="fill:#231f20;fill-opacity:1;fill-rule:nonzero;stroke:none"
       d="m 348.433,383.926 c -2.405,2.235 -5.325,2.578 -6.529,0.687 -1.201,-1.718 0,-4.294 2.921,-5.841 2.921,-1.374 5.671,-1.718 6.529,-0.687 0.687,1.031 -0.687,3.607 -2.921,5.841 z m -38.829,30.41 c 2.063,-3.608 8.076,-2.061 23.711,-10.823 17.868,-10.137 20.103,-19.758 25.944,-19.243 11.683,1.203 9.105,10.138 18.555,10.825 5.67,0.343 10.135,-5.154 33.503,-8.075 6.872,-0.859 25.942,-0.343 23.193,4.123 -5.154,8.075 4.814,10.995 2.234,1.031 -1.203,-4.639 2.236,-11.169 3.438,-15.979 0.688,-2.406 0.172,-3.265 -1.545,-4.468 -2.408,-1.718 -48.969,17.87 -56.7,19.072 -4.983,0.688 -6.872,-0.515 -6.872,-2.576 0,-1.375 -0.172,-12.028 29.037,-18.042 15.806,-3.092 40.891,-3.78 42.265,-5.154 3.437,-3.779 0.515,-14.947 3.78,-16.149 10.995,-3.952 5.155,-12.028 -0.343,-2.062 -1.375,2.405 -3.437,-3.093 -5.842,-2.577 -1.375,0.344 -16.323,11.51 -35.565,18.555 -39.001,14.432 -33.332,21.304 -38.83,21.132 -3.608,0 -8.933,-5.841 -11.682,-11.684 -2.578,-5.669 -6.702,-16.133 -22.509,-16.133 -6.356,0 -11.659,0.859 -13.379,0.859 l 0.344,3.093 c 3.437,-1.718 7.367,-1.891 14.066,-1.891 6.701,-0.171 18.386,7.658 18.386,16.134 0,22.165 -42.61,37.455 -45.361,35.222 l 0.172,4.81" /></g></svg>
